<?xml version="1.0" standalone="no"?>
<!DOCTYPE svg PUBLIC "-//W3C//DTD SVG 20010904//EN"
 "http://www.w3.org/TR/2001/REC-SVG-20010904/DTD/svg10.dtd">
<svg version="1.0" xmlns="http://www.w3.org/2000/svg"
 width="700.000000pt" height="700.000000pt" viewBox="0 0 700.000000 700.000000"
 preserveAspectRatio="xMidYMid meet">
<metadata>
Created by potrace 1.14, written by Peter Selinger 2001-2017
</metadata>
<g transform="translate(0.000000,700.000000) scale(0.100000,-0.100000)"
fill="#000000" stroke="none">
<path d="M0 3500 l0 -3500 3500 0 3500 0 0 3500 0 3500 -3500 0 -3500 0 0
-3500z m3669 634 c111 -29 200 -82 291 -174 134 -134 193 -274 193 -460 0
-186 -59 -326 -193 -460 -134 -134 -274 -193 -460 -193 -186 0 -326 59 -460
193 -134 134 -193 274 -193 460 0 57 7 121 17 160 80 305 367 515 675 493 41
-3 100 -12 130 -19z"/>
</g>
</svg>
